<svg xmlns="http://www.w3.org/2000/svg" fill-rule="evenodd" stroke-linejoin="round" stroke-miterlimit="2" clip-rule="evenodd" viewBox="0 0 64 64"><path d="M59,43l-46,-0c-0.552,0 -1,0.448 -1,1c0,0.552 0.448,1 1,1l46,-0l-0,1.944c-0,0.586 -0.483,1.056 -1.074,1.056c-0,-0 -51.852,0 -51.852,0c-0.591,-0 -1.074,-0.47 -1.074,-1.055l0,-1.945l4,0c0.552,0 1,-0.448 1,-1c0,-0.552 -0.448,-1 -1,-1l-4,0l-0,-21.75c-0,-0.552 -0.448,-1 -1,-1c-0.552,-0 -1,0.448 -1,1l0,25.694c0,1.686 1.374,3.056 3.074,3.056l19.926,0l0,9l-5,0c-0.552,0 -1,0.448 -1,1c0,0.552 0.448,1 1,1l22,0c0.552,0 1,-0.448 1,-1c0,-0.552 -0.448,-1 -1,-1l-5,0l0,-9l19.926,-0c1.7,-0 3.074,-1.37 3.074,-3.056l0,-34.944c0,-0.552 -0.448,-1 -1,-1l-4,-0c-0.552,-0 -1,0.448 -1,1c-0,0.552 0.448,1 1,1l3,-0l0,30Zm-23,16l-0,-9l-8,0l-0,9l8,0Zm-21.163,-30.69c-0.168,-0.342 -0.516,-0.558 -0.896,-0.558c-0.381,0 -0.729,0.216 -0.897,0.558l-0.985,1.996c-0,-0 -2.203,0.32 -2.203,0.32c-0.376,0.054 -0.689,0.318 -0.807,0.68c-0.118,0.362 -0.02,0.76 0.253,1.025l1.594,1.554c-0,0 -0.376,2.194 -0.376,2.194c-0.065,0.375 0.089,0.754 0.397,0.978c0.308,0.224 0.717,0.253 1.054,0.076l1.97,-1.036c-0,0 1.97,1.036 1.97,1.036c0.337,0.177 0.745,0.148 1.053,-0.076c0.308,-0.224 0.462,-0.603 0.398,-0.978l-0.376,-2.194c-0,0 1.593,-1.554 1.593,-1.554c0.273,-0.265 0.371,-0.663 0.254,-1.025c-0.118,-0.362 -0.431,-0.626 -0.808,-0.68l-2.202,-0.32c-0,-0 -0.986,-1.996 -0.986,-1.996Zm11.882,-0c-0.169,-0.342 -0.516,-0.558 -0.897,-0.558c-0.38,0 -0.728,0.216 -0.897,0.558l-0.985,1.996c0,-0 -2.202,0.32 -2.202,0.32c-0.377,0.054 -0.69,0.318 -0.808,0.68c-0.117,0.362 -0.019,0.76 0.253,1.025l1.594,1.554c0,0 -0.376,2.194 -0.376,2.194c-0.064,0.375 0.09,0.754 0.398,0.978c0.308,0.224 0.716,0.253 1.053,0.076l1.97,-1.036c0,0 1.97,1.036 1.97,1.036c0.337,0.177 0.746,0.148 1.054,-0.076c0.307,-0.224 0.462,-0.603 0.397,-0.978l-0.376,-2.194c0,0 1.594,-1.554 1.594,-1.554c0.273,-0.265 0.371,-0.663 0.253,-1.025c-0.118,-0.362 -0.431,-0.626 -0.807,-0.68l-2.203,-0.32c0,-0 -0.985,-1.996 -0.985,-1.996Zm12.118,-0c-0.168,-0.342 -0.516,-0.558 -0.896,-0.558c-0.381,0 -0.729,0.216 -0.897,0.558l-0.985,1.996c-0,-0 -2.203,0.32 -2.203,0.32c-0.376,0.054 -0.689,0.318 -0.807,0.68c-0.118,0.362 -0.02,0.76 0.253,1.025l1.594,1.554c-0,0 -0.376,2.194 -0.376,2.194c-0.065,0.375 0.089,0.754 0.397,0.978c0.308,0.224 0.717,0.253 1.054,0.076l1.97,-1.036c-0,0 1.97,1.036 1.97,1.036c0.337,0.177 0.745,0.148 1.053,-0.076c0.308,-0.224 0.462,-0.603 0.398,-0.978l-0.376,-2.194c-0,0 1.593,-1.554 1.593,-1.554c0.273,-0.265 0.371,-0.663 0.254,-1.025c-0.118,-0.362 -0.431,-0.626 -0.808,-0.68l-2.202,-0.32c-0,-0 -0.986,-1.996 -0.986,-1.996Zm11.882,-0c-0.169,-0.342 -0.516,-0.558 -0.897,-0.558c-0.38,0 -0.728,0.216 -0.897,0.558l-0.985,1.996c0,-0 -2.202,0.32 -2.202,0.32c-0.377,0.054 -0.69,0.318 -0.808,0.68c-0.117,0.362 -0.019,0.76 0.253,1.025l1.594,1.554c0,0 -0.376,2.194 -0.376,2.194c-0.064,0.375 0.09,0.754 0.398,0.978c0.308,0.224 0.716,0.253 1.053,0.076l1.97,-1.036c0,0 1.97,1.036 1.97,1.036c0.337,0.177 0.746,0.148 1.054,-0.076c0.307,-0.224 0.462,-0.603 0.397,-0.978l-0.376,-2.194c0,0 1.594,-1.554 1.594,-1.554c0.273,-0.265 0.371,-0.663 0.253,-1.025c-0.118,-0.362 -0.431,-0.626 -0.807,-0.68l-2.203,-0.32c0,-0 -0.985,-1.996 -0.985,-1.996Zm-0.897,2.702l0.321,0.65c0.146,0.295 0.427,0.5 0.753,0.547l0.718,0.104c-0,0 -0.519,0.507 -0.519,0.507c-0.236,0.23 -0.344,0.561 -0.288,0.885l0.123,0.715c-0,-0 -0.642,-0.338 -0.642,-0.338c-0.292,-0.153 -0.64,-0.153 -0.931,0l-0.642,0.338c-0,-0 0.122,-0.715 0.122,-0.715c0.056,-0.324 -0.051,-0.655 -0.287,-0.885l-0.52,-0.507c0,0 0.718,-0.104 0.718,-0.104c0.326,-0.047 0.608,-0.252 0.753,-0.547l0.321,-0.65Zm-24,-0l0.321,0.65c0.146,0.295 0.427,0.5 0.753,0.547l0.718,0.104c-0,0 -0.519,0.507 -0.519,0.507c-0.236,0.23 -0.344,0.561 -0.288,0.885l0.123,0.715c-0,-0 -0.642,-0.338 -0.642,-0.338c-0.292,-0.153 -0.64,-0.153 -0.931,0l-0.642,0.338c-0,-0 0.122,-0.715 0.122,-0.715c0.056,-0.324 -0.051,-0.655 -0.287,-0.885l-0.52,-0.507c0,0 0.718,-0.104 0.718,-0.104c0.326,-0.047 0.608,-0.252 0.753,-0.547l0.321,-0.65Zm-11.881,-0l0.321,0.65c0.145,0.295 0.427,0.5 0.753,0.547l0.718,0.104c-0,0 -0.52,0.507 -0.52,0.507c-0.236,0.23 -0.343,0.561 -0.287,0.885l0.122,0.715c0,-0 -0.642,-0.338 -0.642,-0.338c-0.291,-0.153 -0.639,-0.153 -0.931,0l-0.642,0.338c0,-0 0.123,-0.715 0.123,-0.715c0.056,-0.324 -0.052,-0.655 -0.288,-0.885l-0.519,-0.507c-0,0 0.718,-0.104 0.718,-0.104c0.325,-0.047 0.607,-0.252 0.753,-0.547l0.321,-0.65Zm24,-0l0.321,0.65c0.145,0.295 0.427,0.5 0.753,0.547l0.718,0.104c-0,0 -0.52,0.507 -0.52,0.507c-0.236,0.23 -0.343,0.561 -0.287,0.885l0.122,0.715c0,-0 -0.642,-0.338 -0.642,-0.338c-0.291,-0.153 -0.639,-0.153 -0.931,0l-0.642,0.338c0,-0 0.123,-0.715 0.123,-0.715c0.056,-0.324 -0.052,-0.655 -0.288,-0.885l-0.519,-0.507c-0,0 0.718,-0.104 0.718,-0.104c0.325,-0.047 0.607,-0.252 0.753,-0.547l0.321,-0.65Zm-28.046,-20.012l-5.895,-0c-0.552,0 -1,0.448 -1,1l-0,5.139c-0,0.552 0.448,1 1,1c0.552,-0 1,-0.448 1,-1l-0,-4.139l4.895,-0l-0,3.632c-0,1.715 1.39,3.105 3.105,3.105l8.217,-0c-0,-0 1.995,4.657 1.995,4.657c0.161,0.375 0.534,0.615 0.943,0.606c0.408,-0.01 0.77,-0.266 0.913,-0.649l1.73,-4.614l4.097,-0c1.715,-0 3.105,-1.39 3.105,-3.105l-0,-10.527c-0,-1.715 -1.39,-3.105 -3.105,-3.105l-17.895,0c-1.715,0 -3.105,1.39 -3.105,3.105l-0,4.895Zm30.964,2.903c-0.805,0.347 -1.545,0.846 -2.177,1.478c-1.313,1.312 -2.05,3.093 -2.05,4.949c-0,1.236 -0,2.17 -0,2.17c-0,0.552 0.447,1 1,1l13.368,0c0.552,0 1,-0.448 1,-1l-0,-2.17c0,-1.856 -0.737,-3.637 -2.05,-4.949c-0.632,-0.632 -1.372,-1.131 -2.177,-1.478c1.538,-1.087 2.543,-2.878 2.543,-4.903c-0,-3.311 -2.689,-6 -6,-6c-3.312,0 -6,2.689 -6,6c-0,2.025 1.005,3.816 2.543,4.903Zm9.141,6.427l-0,1.17c0,-0 -11.368,0 -11.368,0c-0,0 -0,-1.17 -0,-1.17c-0,-1.326 0.526,-2.597 1.464,-3.535c0.938,-0.938 2.21,-1.465 3.536,-1.465c0.454,0 0.913,0 1.368,0c1.326,0 2.598,0.527 3.536,1.465c0.937,0.938 1.464,2.209 1.464,3.535Zm-22.452,-2.593l3.347,-0c0.61,-0 1.105,-0.495 1.105,-1.105c-0,-0 -0,-10.527 -0,-10.527c-0,-0.61 -0.495,-1.105 -1.105,-1.105c-0,0 -17.895,0 -17.895,0c-0.61,0 -1.105,0.495 -1.105,1.105c-0,0 -0,10.527 -0,10.527c-0,0.61 0.495,1.105 1.105,1.105l8.876,-0c0.4,-0 0.762,0.238 0.919,0.606c0,-0 1.275,2.974 1.275,2.974l2.283,-6.089c0.194,-0.517 0.771,-0.779 1.288,-0.585c0.516,0.193 0.779,0.77 0.585,1.287l-0.678,1.807Zm-4.671,-11.214c-0.176,-0.32 -0.512,-0.519 -0.877,-0.519c-0.365,0 -0.701,0.199 -0.877,0.519l-1.069,1.947c0,-0 -2.182,0.415 -2.182,0.415c-0.358,0.068 -0.651,0.326 -0.764,0.673c-0.113,0.347 -0.027,0.728 0.223,0.994l1.521,1.619c0,-0 -0.28,2.203 -0.28,2.203c-0.045,0.362 0.109,0.721 0.405,0.935c0.295,0.215 0.684,0.251 1.014,0.096l2.009,-0.947c0,-0 2.009,0.947 2.009,0.947c0.33,0.155 0.719,0.119 1.014,-0.096c0.296,-0.214 0.45,-0.573 0.405,-0.935l-0.28,-2.203c0,-0 1.521,-1.619 1.521,-1.619c0.25,-0.266 0.336,-0.647 0.223,-0.994c-0.113,-0.347 -0.406,-0.605 -0.764,-0.673l-2.182,-0.415c-0,-0 -1.069,-1.947 -1.069,-1.947Zm21.439,-1.523c2.208,0 4,1.792 4,4c-0,2.208 -1.792,4 -4,4c-2.208,0 -4,-1.792 -4,-4c-0,-2.208 1.792,-4 4,-4Zm-22.316,4.082l0.419,0.764c0.144,0.261 0.397,0.445 0.69,0.501l0.856,0.162c-0,0 -0.597,0.635 -0.597,0.635c-0.204,0.218 -0.301,0.515 -0.263,0.811l0.109,0.864c0,0 -0.788,-0.371 -0.788,-0.371c-0.27,-0.127 -0.582,-0.127 -0.852,-0l-0.788,0.371c-0,0 0.109,-0.864 0.109,-0.864c0.038,-0.296 -0.059,-0.593 -0.263,-0.811l-0.597,-0.635c0,0 0.856,-0.162 0.856,-0.162c0.293,-0.056 0.546,-0.24 0.69,-0.501l0.419,-0.764Z"/></svg>