<svg xmlns="http://www.w3.org/2000/svg" data-name="Layer 1" viewBox="0 0 512 512"><path d="M480.03955,128.03061a7.45334,7.45334,0,0,0-3.30414-3.05469L395.29327,78.45639a7.49013,7.49013,0,0,0-2.1665-1.23731L343.71759,48.99692a7.48684,7.48684,0,0,0-2.1637-1.23584L259.71973,1.01791a7.50084,7.50084,0,0,0-7.43946,0L35.266,124.97592A7.4811,7.4811,0,0,0,31,132.36264V380.23471a7.501,7.501,0,0,0,3.78027,6.51269l217.5,124.23438a7.50084,7.50084,0,0,0,7.43946,0l217.5-124.23438A7.501,7.501,0,0,0,481,380.23471V132.36264A7.46068,7.46068,0,0,0,480.03955,128.03061ZM375.31879,84.32211,172.94006,199.91977,136.48712,179.098,338.86578,63.50033ZM166,213.23031v74.29444l-37-21.042V192.096Zm90-197.062,67.74414,38.69483L121.36554,170.46029,53.622,131.766Zm-7,475.66455L46,375.88119V144.68686l68,38.84131v87.31689a7.49977,7.49977,0,0,0,3.79248,6.51953l52,29.57324A7.49967,7.49967,0,0,0,181,300.4183V221.79819l68,38.8413Zm7-244.46972L188.06171,208.557,390.44043,92.95932l67.93848,38.80615ZM466,375.88119,264,491.26205V260.0682L466,144.68686Z"/><path d="M296.07422 443.34311a7.49416 7.49416 0 0 1-3.708-14.01856l.04346-.02441a7.50019 7.50019 0 1 1 3.66455 14.043zM323.48535 427.69174a7.50047 7.50047 0 0 1-3.70508-14.02539l.09131-.05176a7.49967 7.49967 0 1 1 7.39649 13.04883l-.09131.05176A7.46416 7.46416 0 0 1 323.48535 427.69174zm27.48731-15.7002a7.501 7.501 0 0 1-3.75782-13.99609l.09131-.05273a7.50042 7.50042 0 0 1 7.502 12.99023l-.09131.05274A7.47081 7.47081 0 0 1 350.97266 411.99154zm27.48681-15.70019a7.501 7.501 0 0 1-3.75781-13.99609l.09131-.05274a7.50043 7.50043 0 0 1 7.50195 12.99024l-.09131.05273A7.47079 7.47079 0 0 1 378.45947 396.29135zm27.48731-15.70117a7.50047 7.50047 0 0 1-3.70508-14.02539l.09131-.05176a7.49966 7.49966 0 1 1 7.39648 13.04883l-.09131.05175A7.46413 7.46413 0 0 1 405.94678 380.59018zM433.46094 364.8685a7.51466 7.51466 0 1 1 7.50976-7.55371 7.57963 7.57963 0 0 1-3.71631 6.52441A7.49774 7.49774 0 0 1 433.46094 364.8685zM433.4707 333.51791a7.49974 7.49974 0 0 1-7.5-7.5v-.10449a7.5 7.5 0 0 1 15 0v.10449A7.49974 7.49974 0 0 1 433.4707 333.51791zm0-31.40039a7.49974 7.49974 0 0 1-7.5-7.5V294.513a7.5 7.5 0 0 1 15 0v.10449A7.49974 7.49974 0 0 1 433.4707 302.11752zm0-31.40137a7.49974 7.49974 0 0 1-7.5-7.5v-.10449a7.5 7.5 0 0 1 15 0v.10449A7.49974 7.49974 0 0 1 433.4707 270.71615zm0-31.40039a7.49974 7.49974 0 0 1-7.5-7.5v-.10449a7.5 7.5 0 0 1 15 0v.10449A7.49974 7.49974 0 0 1 433.4707 239.31576zM433.4707 207.89a7.479 7.479 0 0 1-7.5-7.47558v-.04981a7.5 7.5 0 1 1 7.5 7.52539z"/><path d="M296.35547 443.11264a7.47812 7.47812 0 0 1-7.5-7.47461v-.04981a7.5 7.5 0 1 1 7.5 7.52442zM296.35547 411.85092a7.49974 7.49974 0 0 1-7.5-7.5v-.10449a7.5 7.5 0 0 1 15 0v.10449A7.49974 7.49974 0 0 1 296.35547 411.85092zm0-31.3418a7.49974 7.49974 0 0 1-7.5-7.5v-.10351a7.5 7.5 0 0 1 15 0v.10351A7.49974 7.49974 0 0 1 296.35547 380.50912zm0-31.34082a7.49974 7.49974 0 0 1-7.5-7.5v-.10449a7.5 7.5 0 0 1 15 0v.10449A7.49974 7.49974 0 0 1 296.35547 349.1683zm0-31.34179a7.49975 7.49975 0 0 1-7.5-7.5v-.1045a7.5 7.5 0 0 1 15 0v.1045A7.49975 7.49975 0 0 1 296.35547 317.82651zM296.35547 286.46029a7.47894 7.47894 0 0 1-7.5-7.47558v-.04981a7.5 7.5 0 1 1 7.5 7.52539zM433.45117 207.88022a7.5209 7.5209 0 1 1 3.71-.98633l-.04345.02441A7.46819 7.46819 0 0 1 433.45117 207.88022zM323.48877 270.68979a7.50047 7.50047 0 0 1-3.70508-14.02539l.09131-.05176a7.49966 7.49966 0 1 1 7.39648 13.04883l-.0913.05175A7.46417 7.46417 0 0 1 323.48877 270.68979zm27.49072-15.70215a7.501 7.501 0 0 1-3.75781-13.9961l.09131-.05273a7.50042 7.50042 0 0 1 7.50195 12.99023l-.09131.05274A7.47079 7.47079 0 0 1 350.97949 254.98764zm27.49024-15.70215a7.501 7.501 0 0 1-3.75782-13.99609l.09131-.05274a7.50043 7.50043 0 0 1 7.502 12.99024l-.09131.05273A7.47082 7.47082 0 0 1 378.46973 239.28549zm27.49072-15.70313a7.50047 7.50047 0 0 1-3.70508-14.02539l.09131-.05175a7.49966 7.49966 0 1 1 7.39648 13.04882l-.0913.05176A7.46416 7.46416 0 0 1 405.96045 223.58236z"/><path d="M296.04639,286.36557a7.5209,7.5209,0,1,1,3.71-.98633l-.04346.02441A7.46813,7.46813,0,0,1,296.04639,286.36557Z"/></svg>