<svg xmlns="http://www.w3.org/2000/svg" width="32" height="32" viewBox="0 0 32 32"><path style="line-height:normal;text-indent:0;text-align:start;text-decoration-line:none;text-decoration-style:solid;text-decoration-color:#000;text-transform:none;block-progression:tb;white-space:normal;isolation:auto;mix-blend-mode:normal;solid-color:#000;solid-opacity:1" d="M 1.5 4 A 0.5000499 0.50004993 0 0 0 1 4.5 L 1 10.412109 A 0.5000499 0.50004993 0 0 0 1 10.421875 A 0.50005011 0.50005014 0 0 0 1.5 11.005859 L 9.4980469 11.005859 A 0.50005011 0.50005014 0 0 0 9.9980469 10.519531 L 10.021484 9.765625 A 0.50005011 0.50005014 0 0 0 10.021484 9.7519531 L 10.027344 8.6191406 L 13.755859 11.986328 L 10.009766 15.369141 L 10.013672 14.251953 A 0.50005011 0.50005014 0 0 0 10.013672 14.238281 L 9.9980469 13.488281 A 0.50005011 0.50005014 0 0 0 9.4980469 12.998047 L 1.5 12.998047 A 0.50005011 0.50005014 0 0 0 1 13.582031 L 1 19 L 0.5 19 A 0.50004999 0.50005002 0 0 0 0 19.5 L 0 21.5 A 0.50004999 0.50005002 0 0 0 0.5 22 L 3.1660156 22 A 0.50004999 0.50005002 0 0 0 3.7265625 21.671875 C 3.9684706 20.984971 4.4007867 20.391143 4.9492188 19.933594 A 0.50004999 0.50005002 0 0 0 5.09375 19.8125 C 5.7632814 19.30535 6.5925854 19 7.5 19 C 8.427815 19 9.274082 19.321526 9.9511719 19.849609 A 0.50004999 0.50005002 0 0 0 10.021484 19.908203 C 10.58922 20.372244 11.033806 20.981307 11.279297 21.6875 A 0.50031505 0.50031507 0 0 0 11.904297 21.998047 A 0.50004999 0.50005002 0 0 0 11.923828 22 L 19.666016 22 A 0.50004999 0.50005002 0 0 0 20.226562 21.671875 C 20.773942 20.117575 22.25211 19 24 19 C 25.75357 19 27.236237 20.1253 27.779297 21.6875 A 0.50031505 0.50031507 0 0 0 28.400391 22 L 31.5 22 A 0.50004999 0.50005002 0 0 0 32 21.5 L 32 19.5 A 0.50004999 0.50005002 0 0 0 31.5 19 L 31 19 L 31 16.5 L 31 14.5 L 31 11.5 A 0.50004996 0.50004999 0 0 0 30.779297 11.085938 L 25.603516 5.171875 A 0.50004996 0.50004999 0 0 0 25.226562 5 L 18 5 L 18 4.5 A 0.5000499 0.50004993 0 0 0 17.5 4 L 1.5 4 z M 2 5 L 17 5 L 17 11.5 L 17 18.720703 L 17 19 L 10.490234 19 C 9.6546701 18.374209 8.6210629 18 7.5 18 C 6.3790305 18 5.3469551 18.37443 4.5117188 19 L 2 19 L 2 17 L 3.5996094 17 A 0.50004999 0.50005002 0 1 0 3.5996094 16 L 2 16 L 2 13.998047 L 9.0078125 13.998047 L 9.0136719 14.251953 L 9.0039062 16.496094 A 0.50005011 0.50005014 0 0 0 9.8378906 16.871094 L 14.837891 12.357422 A 0.50005011 0.50005014 0 0 0 14.837891 11.615234 L 9.8652344 7.1269531 A 0.50005011 0.50005014 0 0 0 9.4980469 7 L 9.4980469 7.0019531 A 0.50005011 0.50005014 0 0 0 9.03125 7.4980469 L 9.0214844 9.7421875 L 9.0136719 10.005859 L 2 10.005859 L 2 5 z M 18 6 L 25 6 L 29.376953 11 L 18 11 L 18 6 z M 18 12 L 30 12 L 30 14 L 28.5 14 A 0.50004999 0.50005002 0 0 0 28 14.5 L 28 16.5 A 0.50004999 0.50005002 0 0 0 28.5 17 L 30 17 L 30 19 L 26.990234 19 C 26.15467 18.374209 25.121063 18 24 18 C 22.87903 18 21.846955 18.37443 21.011719 19 A 0.50004999 0.50005002 0 0 0 20.984375 19 L 18 19 L 18 12 z M 20.322266 13.5 A 0.50004996 0.50004999 0 0 0 20.373047 14.5 L 22.619141 14.5 A 0.50004996 0.50004999 0 1 0 22.619141 13.5 L 20.373047 13.5 A 0.50004996 0.50004999 0 0 0 20.322266 13.5 z M 29 15 L 30 15 L 30 16 L 29 16 L 29 15 z M 1 20 L 3.5019531 20 C 3.2722237 20.305651 3.0891889 20.645637 2.9335938 21 L 1 21 L 1 20 z M 7.5 20 C 5.57293 20 4 21.573 4 23.5 C 4 25.4271 5.57293 27 7.5 27 C 9.42707 27 11 25.4271 11 23.5 C 11 21.573 9.42707 20 7.5 20 z M 11.5 20 L 12.853516 20 L 17.109375 20 L 17.423828 20 A 0.50004996 0.50004999 0 0 0 17.570312 20 L 20.001953 20 C 19.772224 20.305651 19.589189 20.645637 19.433594 21 L 12.068359 21 C 11.912838 20.645884 11.729607 20.305503 11.5 20 z M 24 20 C 22.07293 20 20.5 21.573 20.5 23.5 C 20.5 25.4271 22.07293 27 24 27 C 25.92707 27 27.5 25.4271 27.5 23.5 C 27.5 21.573 25.92707 20 24 20 z M 28 20 L 31 20 L 31 21 L 28.568359 21 C 28.412838 20.645884 28.229607 20.305503 28 20 z M 7.5 21 C 8.88663 21 10 22.1134 10 23.5 C 10 24.8867 8.88663 26 7.5 26 C 6.11337 26 5 24.8867 5 23.5 C 5 22.1134 6.11337 21 7.5 21 z M 24 21 C 25.38663 21 26.5 22.1134 26.5 23.5 C 26.5 24.8867 25.38663 26 24 26 C 22.61337 26 21.5 24.8867 21.5 23.5 C 21.5 22.1134 22.61337 21 24 21 z M 7.5 22 C 6.6775 22 6 22.6775 6 23.5 C 6 24.3225 6.6775 25 7.5 25 C 8.3225 25 9 24.3225 9 23.5 C 9 22.6775 8.3225 22 7.5 22 z M 24 22 C 23.1775 22 22.5 22.6775 22.5 23.5 C 22.5 24.3225 23.1775 25 24 25 C 24.82251 25 25.5 24.3225 25.5 23.5 C 25.5 22.6775 24.82251 22 24 22 z M 7.5 23 C 7.78206 23 8 23.218 8 23.5 C 8 23.7821 7.78206 24 7.5 24 C 7.21794 24 7 23.7821 7 23.5 C 7 23.218 7.21794 23 7.5 23 z M 24 23 C 24.28207 23 24.5 23.218 24.5 23.5 C 24.5 23.7821 24.28207 24 24 24 C 23.71794 24 23.5 23.7821 23.5 23.5 C 23.5 23.218 23.71794 23 24 23 z " color="#000" enable-background="accumulate" font-family="sans-serif" font-weight="400" overflow="visible"/></svg>